<?xml version="1.0" encoding="UTF-8"?>
<svg width="32px" height="32px" viewBox="0 0 32 32" version="1.1" xmlns="http://www.w3.org/2000/svg">
    <defs>
        <linearGradient id="gradient" x1="0%" y1="0%" x2="100%" y2="100%">
            <stop offset="0%" style="stop-color:#90dbf4"/>
            <stop offset="100%" style="stop-color:#a3c4f3"/>
        </linearGradient>
    </defs>
    <g stroke="none" fill="none">
        <circle fill="url(#gradient)" cx="16" cy="16" r="16"/>
        <path d="M22,14 C22,11.790861 20.209139,10 18,10 C16.1361606,10 14.5711085,11.2764745 14.1264923,13.0281277 C13.7357478,12.4048127 13.1169635,12 12.4,12 C11.0745166,12 10,13.0745166 10,14.4 C10,14.4340089 10.0021545,14.4677319 10.0063394,14.5011443 C9.43422353,14.8155537 9,15.4453474 9,16.2 C9,17.3045695 9.8954305,18.2 11,18.2 L21,18.2 C22.1045695,18.2 23,17.3045695 23,16.2 C23,15.0954305 22.1045695,14.2 21,14.2 C20.9335873,14.2 20.8679723,14.2033574 20.8033564,14.2099318 C20.9337815,13.8074398 21,13.3742594 21,12.9230769 C21,12.9230769 22,14 22,14 Z" fill="#FFFFFF"/>
    </g>
</svg>
